{
  "accessors": [
    {
      "bufferView": 2,
      "componentType": 5126,
      "count": 4719,
      "max": [
        90.5785903930664,
        115.772705078125,
        -2.8020706176757813
      ],
      "min": [
        -83.38581848144531,
        -124.17163848876953,
        -71.89794921875
      ],
      "type": "VEC3"
    },
    {
      "bufferView": 2,
      "byteOffset": 56628,
      "componentType": 5126,
      "count": 4719,
      "max": [
        0.9999560117721558,
        0.9993153214454651,
        0.9999992847442627
      ],
      "min": [
        -0.9999290704727173,
        -0.9999964237213135,
        -0.9999962449073792
      ],
      "type": "VEC3"
    },
    {
      "bufferView": 3,
      "componentType": 5126,
      "count": 4719,
      "max": [
        0.9984093308448792,
        0.9989333748817444,
        0.9996830821037292,
        1.0
      ],
      "min": [
        -0.9999998807907104,
        -0.9960216879844666,
        -0.9999997019767761,
        -1.0
      ],
      "type": "VEC4"
    },
    {
      "bufferView": 1,
      "componentType": 5126,
      "count": 4719,
      "max": [
        0.999500036239624,
        0.9927576184272766
      ],
      "min": [
        0.0005000000237487257,
        0.0701548308134079
      ],
      "type": "VEC2"
    },
    {
      "bufferView": 0,
      "componentType": 5125,
      "count": 26898,
      "type": "SCALAR"
    },
    {
      "bufferView": 2,
      "byteOffset": 113256,
      "componentType": 5126,
      "count": 1672,
      "max": [
        63.14607238769531,
        129.4461669921875,
        50.089942932128906
      ],
      "min": [
        -64.62045288085938,
        -99.58277893066406,
        -70.55704498291016
      ],
      "type": "VEC3"
    },
    {
      "bufferView": 2,
      "byteOffset": 133320,
      "componentType": 5126,
      "count": 1672,
      "max": [
        1.0,
        1.0,
        1.0
      ],
      "min": [
        -1.0,
        -1.0,
        -1.0
      ],
      "type": "VEC3"
    },
    {
      "bufferView": 3,
      "byteOffset": 75504,
      "componentType": 5126,
      "count": 1672,
      "max": [
        1.0,
        1.0,
        1.0,
        1.0
      ],
      "min": [
        -1.0,
        -1.0,
        -1.0,
        1.0
      ],
      "type": "VEC4"
    },
    {
      "bufferView": 1,
      "byteOffset": 37752,
      "componentType": 5126,
      "count": 1672,
      "max": [
        0.999500036239624,
        0.9743544459342957
      ],
      "min": [
        0.0005000000237487257,
        0.0005000000237487257
      ],
      "type": "VEC2"
    },
    {
      "bufferView": 0,
      "byteOffset": 107592,
      "componentType": 5125,
      "count": 5592,
      "type": "SCALAR"
    },
    {
      "bufferView": 2,
      "byteOffset": 153384,
      "componentType": 5126,
      "count": 140,
      "max": [
        59.26280975341797,
        118.31951904296875,
        -19.32990264892578
      ],
      "min": [
        -60.73719024658203,
        -91.68048095703125,
        -49.32990264892578
      ],
      "type": "VEC3"
    },
    {
      "bufferView": 2,
      "byteOffset": 155064,
      "componentType": 5126,
      "count": 140,
      "max": [
        0.9834409952163696,
        0.9834409952163696,
        0.9881072640419006
      ],
      "min": [
        -0.9834409952163696,
        -0.9834409952163696,
        -0.9881072640419006
      ],
      "type": "VEC3"
    },
    {
      "bufferView": 3,
      "byteOffset": 102256,
      "componentType": 5126,
      "count": 140,
      "max": [
        0.9970781803131104,
        0.3747302293777466,
        0.9895002245903015,
        1.0
      ],
      "min": [
        -0.12707392871379852,
        -0.37410545349121094,
        -0.991796612739563,
        1.0
      ],
      "type": "VEC4"
    },
    {
      "bufferView": 1,
      "byteOffset": 51128,
      "componentType": 5126,
      "count": 140,
      "max": [
        0.920409619808197,
        0.999500036239624
      ],
      "min": [
        0.0299693550914526,
        0.004392370581626892
      ],
      "type": "VEC2"
    },
    {
      "bufferView": 0,
      "byteOffset": 129960,
      "componentType": 5125,
      "count": 612,
      "type": "SCALAR"
    }
  ],
  "asset": {
    "extras": {
      "author": "Yenikholic (https://sketchfab.com/yenikholic)",
      "license": "CC-BY-4.0 (http://creativecommons.org/licenses/by/4.0/)",
      "source": "https://sketchfab.com/3d-models/sm-bed-a8f00773d9c84741bddfb390f43a69fb",
      "title": "SM Bed"
    },
    "generator": "Sketchfab-12.67.0",
    "version": "2.0"
  },
  "bufferViews": [
    {
      "buffer": 0,
      "byteLength": 132408,
      "name": "floatBufferViews",
      "target": 34963
    },
    {
      "buffer": 0,
      "byteLength": 52248,
      "byteOffset": 132408,
      "byteStride": 8,
      "name": "floatBufferViews",
      "target": 34962
    },
    {
      "buffer": 0,
      "byteLength": 156744,
      "byteOffset": 184656,
      "byteStride": 12,
      "name": "floatBufferViews",
      "target": 34962
    },
    {
      "buffer": 0,
      "byteLength": 104496,
      "byteOffset": 341400,
      "byteStride": 16,
      "name": "floatBufferViews",
      "target": 34962
    }
  ],
  "buffers": [
    {
      "byteLength": 445896,
      "uri": "scene.bin"
    }
  ],
  "images": [
    {
      "uri": "textures/tela_baseColor.jpeg"
    },
    {
      "uri": "textures/tela_metallicRoughness.png"
    },
    {
      "uri": "textures/tela_normal.png"
    },
    {
      "uri": "textures/madera_baseColor.jpeg"
    },
    {
      "uri": "textures/madera_metallicRoughness.png"
    },
    {
      "uri": "textures/madera_normal.png"
    },
    {
      "uri": "textures/colchon_baseColor.jpeg"
    },
    {
      "uri": "textures/colchon_metallicRoughness.png"
    },
    {
      "uri": "textures/colchon_normal.png"
    }
  ],
  "materials": [
    {
      "doubleSided": true,
      "name": "tela",
      "normalTexture": {
        "index": 2
      },
      "occlusionTexture": {
        "index": 1
      },
      "pbrMetallicRoughness": {
        "baseColorTexture": {
          "index": 0
        },
        "metallicRoughnessTexture": {
          "index": 1
        },
        "roughnessFactor": 0.6800991128717508
      }
    },
    {
      "doubleSided": true,
      "name": "madera",
      "normalTexture": {
        "index": 5
      },
      "occlusionTexture": {
        "index": 4
      },
      "pbrMetallicRoughness": {
        "baseColorTexture": {
          "index": 3
        },
        "metallicRoughnessTexture": {
          "index": 4
        }
      }
    },
    {
      "doubleSided": true,
      "name": "colchon",
      "normalTexture": {
        "index": 8
      },
      "occlusionTexture": {
        "index": 7
      },
      "pbrMetallicRoughness": {
        "baseColorTexture": {
          "index": 6
        },
        "metallicRoughnessTexture": {
          "index": 7
        },
        "roughnessFactor": 0.7366257400535217
      }
    }
  ],
  "meshes": [
    {
      "name": "Plane001_tela_0",
      "primitives": [
        {
          "attributes": {
            "NORMAL": 1,
            "POSITION": 0,
            "TANGENT": 2,
            "TEXCOORD_0": 3
          },
          "indices": 4,
          "material": 0,
          "mode": 4
        }
      ]
    },
    {
      "name": "Plane001_madera_0",
      "primitives": [
        {
          "attributes": {
            "NORMAL": 6,
            "POSITION": 5,
            "TANGENT": 7,
            "TEXCOORD_0": 8
          },
          "indices": 9,
          "material": 1,
          "mode": 4
        }
      ]
    },
    {
      "name": "Plane001_colchon_0",
      "primitives": [
        {
          "attributes": {
            "NORMAL": 11,
            "POSITION": 10,
            "TANGENT": 12,
            "TEXCOORD_0": 13
          },
          "indices": 14,
          "material": 2,
          "mode": 4
        }
      ]
    }
  ],
  "nodes": [
    {
      "children": [
        1
      ],
      "matrix": [
        1.0,
        0.0,
        0.0,
        0.0,
        0.0,
        2.220446049250313e-16,
        -1.0,
        0.0,
        0.0,
        1.0,
        2.220446049250313e-16,
        0.0,
        0.0,
        6.310887241768095e-30,
        -2.842170943040401e-14,
        1.0
      ],
      "name": "Sketchfab_model"
    },
    {
      "children": [
        2
      ],
      "matrix": [
        1.0,
        0.0,
        0.0,
        0.0,
        0.0,
        0.0,
        1.0,
        0.0,
        0.0,
        -1.0,
        0.0,
        0.0,
        0.0,
        0.0,
        0.0,
        1.0
      ],
      "name": "9d2ed63f8a9b404dba89cb8d8da6bae5.fbx"
    },
    {
      "children": [
        3
      ],
      "name": "RootNode"
    },
    {
      "children": [
        4
      ],
      "matrix": [
        1.0,
        0.0,
        0.0,
        0.0,
        0.0,
        2.220446049250313e-16,
        -1.0,
        0.0,
        0.0,
        1.0,
        2.220446049250313e-16,
        0.0,
        0.0,
        0.0,
        0.0,
        1.0
      ],
      "name": "Plane001"
    },
    {
      "children": [
        5,
        6,
        7
      ],
      "matrix": [
        1.0,
        0.0,
        -0.0,
        0.0,
        0.0,
        1.0,
        0.0,
        0.0,
        0.0,
        0.0,
        1.0,
        0.0,
        0.737190246582031,
        -133.319519042969,
        71.75,
        1.0
      ],
      "name": "Object_4"
    },
    {
      "mesh": 0,
      "name": "Plane001_tela_0"
    },
    {
      "mesh": 1,
      "name": "Plane001_madera_0"
    },
    {
      "mesh": 2,
      "name": "Plane001_colchon_0"
    }
  ],
  "samplers": [
    {
      "magFilter": 9729,
      "minFilter": 9987,
      "wrapS": 10497,
      "wrapT": 10497
    }
  ],
  "scene": 0,
  "scenes": [
    {
      "name": "Sketchfab_Scene",
      "nodes": [
        0
      ]
    }
  ],
  "textures": [
    {
      "sampler": 0,
      "source": 0
    },
    {
      "sampler": 0,
      "source": 1
    },
    {
      "sampler": 0,
      "source": 2
    },
    {
      "sampler": 0,
      "source": 3
    },
    {
      "sampler": 0,
      "source": 4
    },
    {
      "sampler": 0,
      "source": 5
    },
    {
      "sampler": 0,
      "source": 6
    },
    {
      "sampler": 0,
      "source": 7
    },
    {
      "sampler": 0,
      "source": 8
    }
  ]
}
