{
  "accessors": [
    {
      "bufferView": 2,
      "componentType": 5126,
      "count": 454,
      "max": [
        -21.363500595092773,
        -53.479801177978516,
        98.95140075683594
      ],
      "min": [
        -179.26629638671875,
        -72.09919738769531,
        57.91579818725586
      ],
      "type": "VEC3"
    },
    {
      "bufferView": 2,
      "byteOffset": 5448,
      "componentType": 5126,
      "count": 454,
      "max": [
        1.0,
        0.0,
        1.0
      ],
      "min": [
        -1.0,
        -1.0,
        -1.0
      ],
      "type": "VEC3"
    },
    {
      "bufferView": 1,
      "componentType": 5126,
      "count": 454,
      "max": [
        0.9545999765396118,
        0.9950000047683716
      ],
      "min": [
        0.004999999888241291,
        0.004999999888241291
      ],
      "type": "VEC2"
    },
    {
      "bufferView": 0,
      "componentType": 5125,
      "count": 690,
      "type": "SCALAR"
    },
    {
      "bufferView": 2,
      "byteOffset": 10896,
      "componentType": 5126,
      "count": 94,
      "max": [
        -20.314800262451172,
        -52.09920120239258,
        100.0
      ],
      "min": [
        -180.38079833984375,
        -275.9916076660156,
        0.0
      ],
      "type": "VEC3"
    },
    {
      "bufferView": 2,
      "byteOffset": 12024,
      "componentType": 5126,
      "count": 94,
      "max": [
        1.0,
        1.0,
        1.0
      ],
      "min": [
        -1.0,
        -1.0,
        -1.0
      ],
      "type": "VEC3"
    },
    {
      "bufferView": 1,
      "byteOffset": 3632,
      "componentType": 5126,
      "count": 94,
      "max": [
        0.9836999773979187,
        0.9451000094413757
      ],
      "min": [
        0.004999999888241291,
        0.004999999888241291
      ],
      "type": "VEC2"
    },
    {
      "bufferView": 0,
      "byteOffset": 2760,
      "componentType": 5125,
      "count": 174,
      "type": "SCALAR"
    },
    {
      "bufferView": 2,
      "byteOffset": 13152,
      "componentType": 5126,
      "count": 65532,
      "max": [
        -16.37179946899414,
        -72.09919738769531,
        100.0
      ],
      "min": [
        -201.09140014648438,
        -280.4617004394531,
        15.432499885559082
      ],
      "type": "VEC3"
    },
    {
      "bufferView": 2,
      "byteOffset": 799536,
      "componentType": 5126,
      "count": 65532,
      "max": [
        0.9999301433563232,
        0.9999916553497314,
        0.999998927116394
      ],
      "min": [
        -0.9997965693473816,
        -1.0,
        -0.9999983310699463
      ],
      "type": "VEC3"
    },
    {
      "bufferView": 1,
      "byteOffset": 4384,
      "componentType": 5126,
      "count": 65532,
      "max": [
        0.9941999912261963,
        0.9950000047683716
      ],
      "min": [
        0.004999999888241291,
        0.004999999888241291
      ],
      "type": "VEC2"
    },
    {
      "bufferView": 0,
      "byteOffset": 3456,
      "componentType": 5125,
      "count": 282396,
      "type": "SCALAR"
    },
    {
      "bufferView": 2,
      "byteOffset": 1585920,
      "componentType": 5126,
      "count": 65532,
      "max": [
        -16.380199432373047,
        -178.93609619140625,
        66.7853012084961
      ],
      "min": [
        -201.01429748535156,
        -280.7734069824219,
        15.436599731445313
      ],
      "type": "VEC3"
    },
    {
      "bufferView": 2,
      "byteOffset": 2372304,
      "componentType": 5126,
      "count": 65532,
      "max": [
        0.999993085861206,
        0.9999265670776367,
        0.9999934434890747
      ],
      "min": [
        -0.9999988079071045,
        -0.99997878074646,
        -0.9999998807907104
      ],
      "type": "VEC3"
    },
    {
      "bufferView": 1,
      "byteOffset": 528640,
      "componentType": 5126,
      "count": 65532,
      "max": [
        0.9947999715805054,
        0.9909999966621399
      ],
      "min": [
        0.06689999997615814,
        0.005799999926239252
      ],
      "type": "VEC2"
    },
    {
      "bufferView": 0,
      "byteOffset": 1133040,
      "componentType": 5125,
      "count": 297798,
      "type": "SCALAR"
    },
    {
      "bufferView": 2,
      "byteOffset": 3158688,
      "componentType": 5126,
      "count": 65532,
      "max": [
        -16.37179946899414,
        -134.4116973876953,
        66.7853012084961
      ],
      "min": [
        -201.07440185546875,
        -284.4872131347656,
        15.445500373840332
      ],
      "type": "VEC3"
    },
    {
      "bufferView": 2,
      "byteOffset": 3945072,
      "componentType": 5126,
      "count": 65532,
      "max": [
        0.999993085861206,
        0.9999358654022217,
        1.0
      ],
      "min": [
        -0.9997492432594299,
        -0.9999983310699463,
        -0.9999998807907104
      ],
      "type": "VEC3"
    },
    {
      "bufferView": 1,
      "byteOffset": 1052896,
      "componentType": 5126,
      "count": 65532,
      "max": [
        0.9927999973297119,
        0.9915000200271606
      ],
      "min": [
        0.007000000216066837,
        0.005100000184029341
      ],
      "type": "VEC2"
    },
    {
      "bufferView": 0,
      "byteOffset": 2324232,
      "componentType": 5125,
      "count": 221766,
      "type": "SCALAR"
    },
    {
      "bufferView": 2,
      "byteOffset": 4731456,
      "componentType": 5126,
      "count": 65532,
      "max": [
        -2.3647000789642334,
        -121.86710357666016,
        72.20220184326172
      ],
      "min": [
        -194.52059936523438,
        -285.5885009765625,
        23.04400062561035
      ],
      "type": "VEC3"
    },
    {
      "bufferView": 2,
      "byteOffset": 5517840,
      "componentType": 5126,
      "count": 65532,
      "max": [
        0.9999768733978271,
        0.9999994039535522,
        0.9999996423721313
      ],
      "min": [
        -0.9999780654907227,
        -0.9999924898147583,
        -0.999998927116394
      ],
      "type": "VEC3"
    },
    {
      "bufferView": 1,
      "byteOffset": 1577152,
      "componentType": 5126,
      "count": 65532,
      "max": [
        0.9941999912261963,
        0.9948999881744385
      ],
      "min": [
        0.004999999888241291,
        0.009200000204145908
      ],
      "type": "VEC2"
    },
    {
      "bufferView": 0,
      "byteOffset": 3211296,
      "componentType": 5125,
      "count": 304944,
      "type": "SCALAR"
    },
    {
      "bufferView": 2,
      "byteOffset": 6304224,
      "componentType": 5126,
      "count": 40668,
      "max": [
        -5.40880012512207,
        -72.04209899902344,
        72.20220184326172
      ],
      "min": [
        -200.8404998779297,
        -285.2348937988281,
        17.070899963378906
      ],
      "type": "VEC3"
    },
    {
      "bufferView": 2,
      "byteOffset": 6792240,
      "componentType": 5126,
      "count": 40668,
      "max": [
        0.9999939203262329,
        1.0,
        1.0
      ],
      "min": [
        -0.9999920129776001,
        -0.9999991655349731,
        -0.9999996423721313
      ],
      "type": "VEC3"
    },
    {
      "bufferView": 1,
      "byteOffset": 2101408,
      "componentType": 5126,
      "count": 40668,
      "max": [
        0.9941999912261963,
        0.9945999979972839
      ],
      "min": [
        0.004999999888241291,
        0.004999999888241291
      ],
      "type": "VEC2"
    },
    {
      "bufferView": 0,
      "byteOffset": 4431072,
      "componentType": 5125,
      "count": 123702,
      "type": "SCALAR"
    }
  ],
  "asset": {
    "extras": {
      "author": "Doaa Sheha (https://sketchfab.com/doo7)",
      "license": "CC-BY-4.0 (http://creativecommons.org/licenses/by/4.0/)",
      "source": "https://sketchfab.com/3d-models/bed-a0c4e15f32954c7aba0fa4c632fc10f2",
      "title": "Bed"
    },
    "generator": "Sketchfab-12.66.0",
    "version": "2.0"
  },
  "bufferViews": [
    {
      "buffer": 0,
      "byteLength": 4925880,
      "name": "floatBufferViews",
      "target": 34963
    },
    {
      "buffer": 0,
      "byteLength": 2426752,
      "byteOffset": 4925880,
      "byteStride": 8,
      "name": "floatBufferViews",
      "target": 34962
    },
    {
      "buffer": 0,
      "byteLength": 7280256,
      "byteOffset": 7352632,
      "byteStride": 12,
      "name": "floatBufferViews",
      "target": 34962
    }
  ],
  "buffers": [
    {
      "byteLength": 14632888,
      "uri": "scene.bin"
    }
  ],
  "extensionsUsed": [
    "KHR_materials_unlit"
  ],
  "images": [
    {
      "uri": "textures/Object001_mtl_baseColor.jpeg"
    },
    {
      "uri": "textures/Object002_mtl_baseColor.jpeg"
    }
  ],
  "materials": [
    {
      "doubleSided": true,
      "emissiveTexture": {
        "index": 0
      },
      "extensions": {
        "KHR_materials_unlit": {}
      },
      "name": "Object001_mtl",
      "pbrMetallicRoughness": {
        "baseColorFactor": [
          0.97,
          0.97,
          0.97,
          1.0
        ],
        "baseColorTexture": {
          "index": 0
        },
        "metallicFactor": 0.0
      }
    },
    {
      "doubleSided": true,
      "emissiveTexture": {
        "index": 1
      },
      "extensions": {
        "KHR_materials_unlit": {}
      },
      "name": "Object002_mtl",
      "pbrMetallicRoughness": {
        "baseColorTexture": {
          "index": 1
        },
        "metallicFactor": 0.0
      }
    }
  ],
  "meshes": [
    {
      "name": "Object_0",
      "primitives": [
        {
          "attributes": {
            "NORMAL": 1,
            "POSITION": 0,
            "TEXCOORD_0": 2
          },
          "indices": 3,
          "material": 0,
          "mode": 4
        }
      ]
    },
    {
      "name": "Object_1",
      "primitives": [
        {
          "attributes": {
            "NORMAL": 5,
            "POSITION": 4,
            "TEXCOORD_0": 6
          },
          "indices": 7,
          "material": 1,
          "mode": 4
        }
      ]
    },
    {
      "name": "Object_2",
      "primitives": [
        {
          "attributes": {
            "NORMAL": 9,
            "POSITION": 8,
            "TEXCOORD_0": 10
          },
          "indices": 11,
          "material": 1,
          "mode": 4
        }
      ]
    },
    {
      "name": "Object_3",
      "primitives": [
        {
          "attributes": {
            "NORMAL": 13,
            "POSITION": 12,
            "TEXCOORD_0": 14
          },
          "indices": 15,
          "material": 1,
          "mode": 4
        }
      ]
    },
    {
      "name": "Object_4",
      "primitives": [
        {
          "attributes": {
            "NORMAL": 17,
            "POSITION": 16,
            "TEXCOORD_0": 18
          },
          "indices": 19,
          "material": 1,
          "mode": 4
        }
      ]
    },
    {
      "name": "Object_5",
      "primitives": [
        {
          "attributes": {
            "NORMAL": 21,
            "POSITION": 20,
            "TEXCOORD_0": 22
          },
          "indices": 23,
          "material": 1,
          "mode": 4
        }
      ]
    },
    {
      "name": "Object_6",
      "primitives": [
        {
          "attributes": {
            "NORMAL": 25,
            "POSITION": 24,
            "TEXCOORD_0": 26
          },
          "indices": 27,
          "material": 1,
          "mode": 4
        }
      ]
    }
  ],
  "nodes": [
    {
      "children": [
        1
      ],
      "matrix": [
        1.0,
        0.0,
        0.0,
        0.0,
        0.0,
        2.220446049250313e-16,
        -1.0,
        0.0,
        0.0,
        1.0,
        2.220446049250313e-16,
        0.0,
        0.0,
        0.0,
        0.0,
        1.0
      ],
      "name": "Sketchfab_model"
    },
    {
      "children": [
        2,
        3,
        4,
        5,
        6,
        7,
        8
      ],
      "name": "Enter a title.obj.cleaner"
    },
    {
      "mesh": 0,
      "name": "Object_2"
    },
    {
      "mesh": 1,
      "name": "Object_3"
    },
    {
      "mesh": 2,
      "name": "Object_4"
    },
    {
      "mesh": 3,
      "name": "Object_5"
    },
    {
      "mesh": 4,
      "name": "Object_6"
    },
    {
      "mesh": 5,
      "name": "Object_7"
    },
    {
      "mesh": 6,
      "name": "Object_8"
    }
  ],
  "samplers": [
    {
      "magFilter": 9729,
      "minFilter": 9987,
      "wrapS": 10497,
      "wrapT": 10497
    }
  ],
  "scene": 0,
  "scenes": [
    {
      "name": "Sketchfab_Scene",
      "nodes": [
        0
      ]
    }
  ],
  "textures": [
    {
      "sampler": 0,
      "source": 0
    },
    {
      "sampler": 0,
      "source": 1
    }
  ]
}
