{
  "accessors": [
    {
      "bufferView": 2,
      "componentType": 5126,
      "count": 773,
      "max": [
        -0.5903739929199219,
        0.0843179002404213,
        0.37069499492645264
      ],
      "min": [
        -1.0,
        -0.2342129945755005,
        -0.37069499492645264
      ],
      "type": "VEC3"
    },
    {
      "bufferView": 2,
      "byteOffset": 9276,
      "componentType": 5126,
      "count": 773,
      "max": [
        1.0,
        1.0,
        1.0
      ],
      "min": [
        -1.0,
        -1.0,
        -1.0
      ],
      "type": "VEC3"
    },
    {
      "bufferView": 3,
      "componentType": 5126,
      "count": 773,
      "max": [
        1.0,
        0.9870870113372803,
        1.0,
        1.0
      ],
      "min": [
        -1.0,
        -0.9870870113372803,
        -1.0,
        1.0
      ],
      "type": "VEC4"
    },
    {
      "bufferView": 1,
      "componentType": 5126,
      "count": 773,
      "max": [
        0.9994999766349792,
        0.9862520098686218
      ],
      "min": [
        0.5165910124778748,
        0.005107960198074579
      ],
      "type": "VEC2"
    },
    {
      "bufferView": 0,
      "componentType": 5125,
      "count": 3612,
      "type": "SCALAR"
    },
    {
      "bufferView": 2,
      "byteOffset": 18552,
      "componentType": 5126,
      "count": 1044,
      "max": [
        1.0,
        0.0843179002404213,
        0.37069499492645264
      ],
      "min": [
        0.5902900099754333,
        -0.2342129945755005,
        -0.37069499492645264
      ],
      "type": "VEC3"
    },
    {
      "bufferView": 2,
      "byteOffset": 31080,
      "componentType": 5126,
      "count": 1044,
      "max": [
        1.0,
        1.0,
        1.0
      ],
      "min": [
        -1.0,
        -1.0,
        -1.0
      ],
      "type": "VEC3"
    },
    {
      "bufferView": 3,
      "byteOffset": 12368,
      "componentType": 5126,
      "count": 1044,
      "max": [
        1.0,
        0.9870870113372803,
        1.0,
        1.0
      ],
      "min": [
        -1.0,
        -0.9870870113372803,
        -1.0,
        1.0
      ],
      "type": "VEC4"
    },
    {
      "bufferView": 1,
      "byteOffset": 6184,
      "componentType": 5126,
      "count": 1044,
      "max": [
        0.9971089959144592,
        0.9974730014801025
      ],
      "min": [
        0.0005000000237487257,
        0.4705120027065277
      ],
      "type": "VEC2"
    },
    {
      "bufferView": 0,
      "byteOffset": 14448,
      "componentType": 5125,
      "count": 4956,
      "type": "SCALAR"
    },
    {
      "bufferView": 2,
      "byteOffset": 43608,
      "componentType": 5126,
      "count": 899,
      "max": [
        0.5889189839363098,
        0.0843179002404213,
        0.039014801383018494
      ],
      "min": [
        -0.5922390222549438,
        -0.2342129945755005,
        -0.37069499492645264
      ],
      "type": "VEC3"
    },
    {
      "bufferView": 2,
      "byteOffset": 54396,
      "componentType": 5126,
      "count": 899,
      "max": [
        1.0,
        1.0,
        1.0
      ],
      "min": [
        -1.0,
        -1.0,
        -1.0
      ],
      "type": "VEC3"
    },
    {
      "bufferView": 3,
      "byteOffset": 29072,
      "componentType": 5126,
      "count": 899,
      "max": [
        1.0,
        0.9870870113372803,
        1.0,
        1.0
      ],
      "min": [
        -1.0,
        -0.9870870113372803,
        -1.0,
        1.0
      ],
      "type": "VEC4"
    },
    {
      "bufferView": 1,
      "byteOffset": 14536,
      "componentType": 5126,
      "count": 899,
      "max": [
        0.9933689832687378,
        0.9974009990692139
      ],
      "min": [
        0.0005000000237487257,
        0.0005000000237487257
      ],
      "type": "VEC2"
    },
    {
      "bufferView": 0,
      "byteOffset": 34272,
      "componentType": 5125,
      "count": 4332,
      "type": "SCALAR"
    },
    {
      "bufferView": 2,
      "byteOffset": 65184,
      "componentType": 5126,
      "count": 456,
      "max": [
        0.9632629752159119,
        0.1813019961118698,
        0.0355105996131897
      ],
      "min": [
        0.6501989960670471,
        0.016821300610899925,
        -0.30940601229667664
      ],
      "type": "VEC3"
    },
    {
      "bufferView": 2,
      "byteOffset": 70656,
      "componentType": 5126,
      "count": 456,
      "max": [
        0.9903756380081177,
        0.9999424815177917,
        0.9987733364105225
      ],
      "min": [
        -0.9671775102615356,
        -0.9910368919372559,
        -0.9819042086601257
      ],
      "type": "VEC3"
    },
    {
      "bufferView": 3,
      "byteOffset": 43456,
      "componentType": 5126,
      "count": 456,
      "max": [
        0.7116249799728394,
        0.8755189776420593,
        0.922478973865509,
        1.0
      ],
      "min": [
        -0.9870929718017578,
        -0.8460860252380371,
        -0.999737024307251,
        1.0
      ],
      "type": "VEC4"
    },
    {
      "bufferView": 1,
      "byteOffset": 21728,
      "componentType": 5126,
      "count": 456,
      "max": [
        0.9994999766349792,
        0.9973059892654419
      ],
      "min": [
        0.0004999639932066202,
        0.4974350035190582
      ],
      "type": "VEC2"
    },
    {
      "bufferView": 0,
      "byteOffset": 51600,
      "componentType": 5125,
      "count": 2400,
      "type": "SCALAR"
    },
    {
      "bufferView": 2,
      "byteOffset": 76128,
      "componentType": 5126,
      "count": 456,
      "max": [
        0.6568760275840759,
        0.22419199347496033,
        -0.16981999576091766
      ],
      "min": [
        0.35128000378608704,
        0.015398900024592876,
        -0.3389829993247986
      ],
      "type": "VEC3"
    },
    {
      "bufferView": 2,
      "byteOffset": 81600,
      "componentType": 5126,
      "count": 456,
      "max": [
        0.9999356269836426,
        0.9951306581497192,
        0.9937278628349304
      ],
      "min": [
        -0.9997854828834534,
        -0.9997696280479431,
        -0.9986461400985718
      ],
      "type": "VEC3"
    },
    {
      "bufferView": 3,
      "byteOffset": 50752,
      "componentType": 5126,
      "count": 456,
      "max": [
        0.9999899864196777,
        0.772392988204956,
        0.9206830263137817,
        1.0
      ],
      "min": [
        -0.9999930262565613,
        -0.8380299806594849,
        -0.917855978012085,
        1.0
      ],
      "type": "VEC4"
    },
    {
      "bufferView": 1,
      "byteOffset": 25376,
      "componentType": 5126,
      "count": 456,
      "max": [
        0.9994999766349792,
        0.500370979309082
      ],
      "min": [
        0.0005000000237487257,
        0.0005000000237487257
      ],
      "type": "VEC2"
    },
    {
      "bufferView": 0,
      "byteOffset": 61200,
      "componentType": 5125,
      "count": 2400,
      "type": "SCALAR"
    },
    {
      "bufferView": 2,
      "byteOffset": 87072,
      "componentType": 5126,
      "count": 456,
      "max": [
        -0.14189399778842926,
        0.2342129945755005,
        -0.044270001351833344
      ],
      "min": [
        -0.45253700017929077,
        0.005475489888340235,
        -0.314424991607666
      ],
      "type": "VEC3"
    },
    {
      "bufferView": 2,
      "byteOffset": 92544,
      "componentType": 5126,
      "count": 456,
      "max": [
        0.9769660234451294,
        0.9973265528678894,
        0.9807068705558777
      ],
      "min": [
        -0.9695438742637634,
        -0.9998122453689575,
        -0.9919801354408264
      ],
      "type": "VEC3"
    },
    {
      "bufferView": 3,
      "byteOffset": 58048,
      "componentType": 5126,
      "count": 456,
      "max": [
        0.9587929844856262,
        0.8228480219841003,
        0.9238989949226379,
        1.0
      ],
      "min": [
        -0.9863669872283936,
        -0.7966470122337341,
        -0.916923999786377,
        1.0
      ],
      "type": "VEC4"
    },
    {
      "bufferView": 1,
      "byteOffset": 29024,
      "componentType": 5126,
      "count": 456,
      "max": [
        0.9994999766349792,
        0.500370979309082
      ],
      "min": [
        0.0005000000237487257,
        0.0005000000237487257
      ],
      "type": "VEC2"
    },
    {
      "bufferView": 0,
      "byteOffset": 70800,
      "componentType": 5125,
      "count": 2400,
      "type": "SCALAR"
    },
    {
      "bufferView": 2,
      "byteOffset": 98016,
      "componentType": 5126,
      "count": 456,
      "max": [
        -0.44586101174354553,
        0.22419199347496033,
        -0.16981999576091766
      ],
      "min": [
        -0.7514569759368896,
        0.015398900024592876,
        -0.3389829993247986
      ],
      "type": "VEC3"
    },
    {
      "bufferView": 2,
      "byteOffset": 103488,
      "componentType": 5126,
      "count": 456,
      "max": [
        0.9999356269836426,
        0.9951306581497192,
        0.9937278628349304
      ],
      "min": [
        -0.9997854828834534,
        -0.9997696280479431,
        -0.9986461400985718
      ],
      "type": "VEC3"
    },
    {
      "bufferView": 3,
      "byteOffset": 65344,
      "componentType": 5126,
      "count": 456,
      "max": [
        0.9999930262565613,
        0.8380299806594849,
        0.9178569912910461,
        1.0
      ],
      "min": [
        -0.9999899864196777,
        -0.772392988204956,
        -0.9206830263137817,
        1.0
      ],
      "type": "VEC4"
    },
    {
      "bufferView": 1,
      "byteOffset": 32672,
      "componentType": 5126,
      "count": 456,
      "max": [
        0.9994999766349792,
        0.9973059892654419
      ],
      "min": [
        0.0004999639932066202,
        0.4974350035190582
      ],
      "type": "VEC2"
    },
    {
      "bufferView": 0,
      "byteOffset": 80400,
      "componentType": 5125,
      "count": 2400,
      "type": "SCALAR"
    },
    {
      "bufferView": 2,
      "byteOffset": 108960,
      "componentType": 5126,
      "count": 456,
      "max": [
        0.04823260009288788,
        0.22173599898815155,
        -0.16605600714683533
      ],
      "min": [
        -0.2573629915714264,
        0.012942800298333168,
        -0.33522000908851624
      ],
      "type": "VEC3"
    },
    {
      "bufferView": 2,
      "byteOffset": 114432,
      "componentType": 5126,
      "count": 456,
      "max": [
        0.9999356269836426,
        0.9997696280479431,
        0.9986461400985718
      ],
      "min": [
        -0.9997854828834534,
        -0.9951306581497192,
        -0.9937278628349304
      ],
      "type": "VEC3"
    },
    {
      "bufferView": 3,
      "byteOffset": 72640,
      "componentType": 5126,
      "count": 456,
      "max": [
        0.9999930262565613,
        0.772392988204956,
        0.9206830263137817,
        1.0
      ],
      "min": [
        -0.9999899864196777,
        -0.8380299806594849,
        -0.9178569912910461,
        1.0
      ],
      "type": "VEC4"
    },
    {
      "bufferView": 1,
      "byteOffset": 36320,
      "componentType": 5126,
      "count": 456,
      "max": [
        0.9994999766349792,
        0.9973059892654419
      ],
      "min": [
        0.0004999639932066202,
        0.4974350035190582
      ],
      "type": "VEC2"
    },
    {
      "bufferView": 0,
      "byteOffset": 90000,
      "componentType": 5125,
      "count": 2400,
      "type": "SCALAR"
    }
  ],
  "asset": {
    "extras": {
      "author": "edouard.angebault (https://sketchfab.com/edouard.angebault)",
      "license": "CC-BY-4.0 (http://creativecommons.org/licenses/by/4.0/)",
      "source": "https://sketchfab.com/3d-models/couch-6ad696569d8444e79d97c6f1746595d5",
      "title": "couch"
    },
    "generator": "Sketchfab-12.66.0",
    "version": "2.0"
  },
  "bufferViews": [
    {
      "buffer": 0,
      "byteLength": 99600,
      "name": "floatBufferViews",
      "target": 34963
    },
    {
      "buffer": 0,
      "byteLength": 39968,
      "byteOffset": 99600,
      "byteStride": 8,
      "name": "floatBufferViews",
      "target": 34962
    },
    {
      "buffer": 0,
      "byteLength": 119904,
      "byteOffset": 139568,
      "byteStride": 12,
      "name": "floatBufferViews",
      "target": 34962
    },
    {
      "buffer": 0,
      "byteLength": 79936,
      "byteOffset": 259472,
      "byteStride": 16,
      "name": "floatBufferViews",
      "target": 34962
    }
  ],
  "buffers": [
    {
      "byteLength": 339408,
      "uri": "scene.bin"
    }
  ],
  "images": [
    {
      "uri": "textures/Coussin_003_Mat_baseColor.png"
    },
    {
      "uri": "textures/Coussin_003_Mat_metallicRoughness.png"
    },
    {
      "uri": "textures/Coussin_003_Mat_normal.png"
    },
    {
      "uri": "textures/Coussin_001_Mat_baseColor.png"
    },
    {
      "uri": "textures/Coussin_001_Mat_metallicRoughness.png"
    },
    {
      "uri": "textures/Coussin_001_Mat_normal.png"
    },
    {
      "uri": "textures/Coussin_002_Mat_baseColor.png"
    },
    {
      "uri": "textures/Coussin_002_Mat_metallicRoughness.png"
    },
    {
      "uri": "textures/Coussin_002_Mat_normal.png"
    },
    {
      "uri": "textures/Coussin_004_Mat_baseColor.png"
    },
    {
      "uri": "textures/Coussin_004_Mat_metallicRoughness.png"
    },
    {
      "uri": "textures/Coussin_004_Mat_normal.png"
    },
    {
      "uri": "textures/Coussin_005_Mat_baseColor.png"
    },
    {
      "uri": "textures/Coussin_005_Mat_metallicRoughness.png"
    },
    {
      "uri": "textures/Coussin_005_Mat_normal.png"
    },
    {
      "uri": "textures/Canape_Mat_baseColor.png"
    },
    {
      "uri": "textures/Canape_Mat_metallicRoughness.png"
    },
    {
      "uri": "textures/Canape_Mat_normal.png"
    }
  ],
  "materials": [
    {
      "alphaMode": "BLEND",
      "doubleSided": true,
      "name": "Coussin_003_Mat",
      "normalTexture": {
        "index": 2
      },
      "occlusionTexture": {
        "index": 1
      },
      "pbrMetallicRoughness": {
        "baseColorTexture": {
          "index": 0
        },
        "metallicRoughnessTexture": {
          "index": 1
        }
      }
    },
    {
      "alphaMode": "BLEND",
      "doubleSided": true,
      "name": "Coussin_001_Mat",
      "normalTexture": {
        "index": 5
      },
      "occlusionTexture": {
        "index": 4
      },
      "pbrMetallicRoughness": {
        "baseColorTexture": {
          "index": 3
        },
        "metallicRoughnessTexture": {
          "index": 4
        }
      }
    },
    {
      "alphaMode": "BLEND",
      "doubleSided": true,
      "name": "Coussin_002_Mat",
      "normalTexture": {
        "index": 8
      },
      "occlusionTexture": {
        "index": 7
      },
      "pbrMetallicRoughness": {
        "baseColorTexture": {
          "index": 6
        },
        "metallicRoughnessTexture": {
          "index": 7
        }
      }
    },
    {
      "alphaMode": "BLEND",
      "doubleSided": true,
      "name": "Coussin_004_Mat",
      "normalTexture": {
        "index": 11
      },
      "occlusionTexture": {
        "index": 10
      },
      "pbrMetallicRoughness": {
        "baseColorTexture": {
          "index": 9
        },
        "metallicRoughnessTexture": {
          "index": 10
        }
      }
    },
    {
      "alphaMode": "BLEND",
      "doubleSided": true,
      "name": "Coussin_005_Mat",
      "normalTexture": {
        "index": 14
      },
      "occlusionTexture": {
        "index": 13
      },
      "pbrMetallicRoughness": {
        "baseColorTexture": {
          "index": 12
        },
        "metallicRoughnessTexture": {
          "index": 13
        }
      }
    },
    {
      "alphaMode": "BLEND",
      "doubleSided": true,
      "name": "Canape_Mat",
      "normalTexture": {
        "index": 17
      },
      "occlusionTexture": {
        "index": 16
      },
      "pbrMetallicRoughness": {
        "baseColorTexture": {
          "index": 15
        },
        "metallicRoughnessTexture": {
          "index": 16
        }
      }
    }
  ],
  "meshes": [
    {
      "name": "defaultMaterial",
      "primitives": [
        {
          "attributes": {
            "NORMAL": 1,
            "POSITION": 0,
            "TANGENT": 2,
            "TEXCOORD_0": 3
          },
          "indices": 4,
          "material": 5,
          "mode": 4
        }
      ]
    },
    {
      "name": "defaultMaterial",
      "primitives": [
        {
          "attributes": {
            "NORMAL": 6,
            "POSITION": 5,
            "TANGENT": 7,
            "TEXCOORD_0": 8
          },
          "indices": 9,
          "material": 5,
          "mode": 4
        }
      ]
    },
    {
      "name": "defaultMaterial",
      "primitives": [
        {
          "attributes": {
            "NORMAL": 11,
            "POSITION": 10,
            "TANGENT": 12,
            "TEXCOORD_0": 13
          },
          "indices": 14,
          "material": 5,
          "mode": 4
        }
      ]
    },
    {
      "name": "defaultMaterial",
      "primitives": [
        {
          "attributes": {
            "NORMAL": 16,
            "POSITION": 15,
            "TANGENT": 17,
            "TEXCOORD_0": 18
          },
          "indices": 19,
          "material": 4,
          "mode": 4
        }
      ]
    },
    {
      "name": "defaultMaterial",
      "primitives": [
        {
          "attributes": {
            "NORMAL": 21,
            "POSITION": 20,
            "TANGENT": 22,
            "TEXCOORD_0": 23
          },
          "indices": 24,
          "material": 3,
          "mode": 4
        }
      ]
    },
    {
      "name": "defaultMaterial",
      "primitives": [
        {
          "attributes": {
            "NORMAL": 26,
            "POSITION": 25,
            "TANGENT": 27,
            "TEXCOORD_0": 28
          },
          "indices": 29,
          "material": 2,
          "mode": 4
        }
      ]
    },
    {
      "name": "defaultMaterial",
      "primitives": [
        {
          "attributes": {
            "NORMAL": 31,
            "POSITION": 30,
            "TANGENT": 32,
            "TEXCOORD_0": 33
          },
          "indices": 34,
          "material": 1,
          "mode": 4
        }
      ]
    },
    {
      "name": "defaultMaterial",
      "primitives": [
        {
          "attributes": {
            "NORMAL": 36,
            "POSITION": 35,
            "TANGENT": 37,
            "TEXCOORD_0": 38
          },
          "indices": 39,
          "material": 0,
          "mode": 4
        }
      ]
    }
  ],
  "nodes": [
    {
      "children": [
        1
      ],
      "matrix": [
        1.0,
        0.0,
        0.0,
        0.0,
        0.0,
        2.220446049250313e-16,
        -1.0,
        0.0,
        0.0,
        1.0,
        2.220446049250313e-16,
        0.0,
        0.0,
        0.0,
        0.0,
        1.0
      ],
      "name": "Sketchfab_model"
    },
    {
      "children": [
        2,
        4,
        6,
        8,
        10,
        12,
        14,
        16
      ],
      "matrix": [
        1.0,
        0.0,
        0.0,
        0.0,
        0.0,
        -4.371139006309477e-08,
        0.999999999999999,
        0.0,
        0.0,
        -0.999999999999999,
        -4.371139006309477e-08,
        0.0,
        0.0,
        0.0,
        0.0,
        1.0
      ],
      "name": "Collada visual scene group"
    },
    {
      "children": [
        3
      ],
      "name": "Canape_Part02"
    },
    {
      "mesh": 0,
      "name": "defaultMaterial"
    },
    {
      "children": [
        5
      ],
      "name": "Canape_Part03"
    },
    {
      "mesh": 1,
      "name": "defaultMaterial"
    },
    {
      "children": [
        7
      ],
      "name": "Canape_Part01"
    },
    {
      "mesh": 2,
      "name": "defaultMaterial"
    },
    {
      "children": [
        9
      ],
      "name": "Coussin005"
    },
    {
      "mesh": 3,
      "name": "defaultMaterial"
    },
    {
      "children": [
        11
      ],
      "name": "Coussin004"
    },
    {
      "mesh": 4,
      "name": "defaultMaterial"
    },
    {
      "children": [
        13
      ],
      "name": "Coussin002"
    },
    {
      "mesh": 5,
      "name": "defaultMaterial"
    },
    {
      "children": [
        15
      ],
      "name": "Coussin001"
    },
    {
      "mesh": 6,
      "name": "defaultMaterial"
    },
    {
      "children": [
        17
      ],
      "name": "Coussin003"
    },
    {
      "mesh": 7,
      "name": "defaultMaterial"
    }
  ],
  "samplers": [
    {
      "magFilter": 9729,
      "minFilter": 9987,
      "wrapS": 10497,
      "wrapT": 10497
    }
  ],
  "scene": 0,
  "scenes": [
    {
      "name": "Sketchfab_Scene",
      "nodes": [
        0
      ]
    }
  ],
  "textures": [
    {
      "sampler": 0,
      "source": 0
    },
    {
      "sampler": 0,
      "source": 1
    },
    {
      "sampler": 0,
      "source": 2
    },
    {
      "sampler": 0,
      "source": 3
    },
    {
      "sampler": 0,
      "source": 4
    },
    {
      "sampler": 0,
      "source": 5
    },
    {
      "sampler": 0,
      "source": 6
    },
    {
      "sampler": 0,
      "source": 7
    },
    {
      "sampler": 0,
      "source": 8
    },
    {
      "sampler": 0,
      "source": 9
    },
    {
      "sampler": 0,
      "source": 10
    },
    {
      "sampler": 0,
      "source": 11
    },
    {
      "sampler": 0,
      "source": 12
    },
    {
      "sampler": 0,
      "source": 13
    },
    {
      "sampler": 0,
      "source": 14
    },
    {
      "sampler": 0,
      "source": 15
    },
    {
      "sampler": 0,
      "source": 16
    },
    {
      "sampler": 0,
      "source": 17
    }
  ]
}
