{
  "accessors": [
    {
      "bufferView": 2,
      "componentType": 5126,
      "count": 416,
      "max": [
        3.5309860706329346,
        2.6877288818359375,
        0.4023742079734802
      ],
      "min": [
        -3.631277084350586,
        -2.519212007522583,
        -0.2721179127693176
      ],
      "type": "VEC3"
    },
    {
      "bufferView": 2,
      "byteOffset": 4992,
      "componentType": 5126,
      "count": 416,
      "max": [
        0.9552754759788513,
        0.9851816296577454,
        0.9788447022438049
      ],
      "min": [
        -0.9543728232383728,
        -0.9790917038917542,
        -0.9766731262207031
      ],
      "type": "VEC3"
    },
    {
      "bufferView": 3,
      "componentType": 5126,
      "count": 416,
      "max": [
        0.9999455213546753,
        0.9912683963775635,
        0.9879243969917297,
        1.0
      ],
      "min": [
        -0.9339727759361267,
        -0.9987555742263794,
        -0.9888168573379517,
        -1.0
      ],
      "type": "VEC4"
    },
    {
      "bufferView": 1,
      "componentType": 5126,
      "count": 416,
      "max": [
        0.8861082196235657,
        0.9879266023635864
      ],
      "min": [
        0.024340270087122917,
        0.005415380001068115
      ],
      "type": "VEC2"
    },
    {
      "bufferView": 0,
      "componentType": 5125,
      "count": 1716,
      "type": "SCALAR"
    },
    {
      "bufferView": 2,
      "byteOffset": 9984,
      "componentType": 5126,
      "count": 222,
      "max": [
        1.0184600353240967,
        1.2377270460128784,
        0.11440300196409225
      ],
      "min": [
        -1.0184600353240967,
        -2.213789939880371,
        -35.7027587890625
      ],
      "type": "VEC3"
    },
    {
      "bufferView": 2,
      "byteOffset": 12648,
      "componentType": 5126,
      "count": 222,
      "max": [
        1.0,
        0.9999591708183289,
        0.5256205201148987
      ],
      "min": [
        -1.0,
        -0.9999576807022095,
        -0.9963237047195435
      ],
      "type": "VEC3"
    },
    {
      "bufferView": 3,
      "byteOffset": 6656,
      "componentType": 5126,
      "count": 222,
      "max": [
        0.999902606010437,
        0.9995290637016296,
        0.6483998894691467,
        1.0
      ],
      "min": [
        -1.0,
        -0.9983763694763184,
        -0.6337363719940186,
        1.0
      ],
      "type": "VEC4"
    },
    {
      "bufferView": 1,
      "byteOffset": 3328,
      "componentType": 5126,
      "count": 222,
      "max": [
        0.949090301990509,
        0.9889875054359436
      ],
      "min": [
        0.01990354061126709,
        0.018882570788264275
      ],
      "type": "VEC2"
    },
    {
      "bufferView": 0,
      "byteOffset": 6864,
      "componentType": 5125,
      "count": 894,
      "type": "SCALAR"
    },
    {
      "bufferView": 2,
      "byteOffset": 15312,
      "componentType": 5126,
      "count": 359,
      "max": [
        0.35002830624580383,
        1.13230299949646,
        40.6378288269043
      ],
      "min": [
        -0.3500278890132904,
        -1.8935580253601074,
        -0.011583619751036167
      ],
      "type": "VEC3"
    },
    {
      "bufferView": 2,
      "byteOffset": 19620,
      "componentType": 5126,
      "count": 359,
      "max": [
        0.9997875094413757,
        0.9999901056289673,
        0.8129885196685791
      ],
      "min": [
        -0.9997875094413757,
        -0.9999902248382568,
        -0.9997754096984863
      ],
      "type": "VEC3"
    },
    {
      "bufferView": 3,
      "byteOffset": 10208,
      "componentType": 5126,
      "count": 359,
      "max": [
        0.9999999403953552,
        0.9997879266738892,
        0.9981163740158081,
        1.0
      ],
      "min": [
        -1.0,
        -0.9997878670692444,
        -0.9316928386688232,
        1.0
      ],
      "type": "VEC4"
    },
    {
      "bufferView": 1,
      "byteOffset": 5104,
      "componentType": 5126,
      "count": 359,
      "max": [
        0.5001273155212402,
        0.9993141293525696
      ],
      "min": [
        0.08066415041685104,
        0.008065581321716309
      ],
      "type": "VEC2"
    },
    {
      "bufferView": 0,
      "byteOffset": 10440,
      "componentType": 5125,
      "count": 1722,
      "type": "SCALAR"
    },
    {
      "bufferView": 2,
      "byteOffset": 23928,
      "componentType": 5126,
      "count": 52,
      "max": [
        0.6560071706771851,
        1.3851710557937622,
        2.0521700382232666
      ],
      "min": [
        -0.6475939750671387,
        -1.369791030883789,
        0.07538223266601563
      ],
      "type": "VEC3"
    },
    {
      "bufferView": 2,
      "byteOffset": 24552,
      "componentType": 5126,
      "count": 52,
      "max": [
        1.0,
        0.9999744892120361,
        0.6881064772605896
      ],
      "min": [
        -1.0,
        -1.0,
        0.0
      ],
      "type": "VEC3"
    },
    {
      "bufferView": 3,
      "byteOffset": 15952,
      "componentType": 5126,
      "count": 52,
      "max": [
        1.0,
        1.0,
        0.720794677734375,
        1.0
      ],
      "min": [
        -1.0,
        -0.24974888563156128,
        -0.7207946181297302,
        1.0
      ],
      "type": "VEC4"
    },
    {
      "bufferView": 1,
      "byteOffset": 7976,
      "componentType": 5126,
      "count": 52,
      "max": [
        0.9512984752655029,
        0.9348132014274597
      ],
      "min": [
        0.00016458200116176158,
        0.04347461089491844
      ],
      "type": "VEC2"
    },
    {
      "bufferView": 0,
      "byteOffset": 17328,
      "componentType": 5125,
      "count": 138,
      "type": "SCALAR"
    },
    {
      "bufferView": 2,
      "byteOffset": 25176,
      "componentType": 5126,
      "count": 187,
      "max": [
        0.23774109780788422,
        1.4188770055770874,
        89.77764129638672
      ],
      "min": [
        -0.1901831030845642,
        -2.3303720951080322,
        1.1343380212783813
      ],
      "type": "VEC3"
    },
    {
      "bufferView": 2,
      "byteOffset": 27420,
      "componentType": 5126,
      "count": 187,
      "max": [
        0.9971083998680115,
        0.9999976754188538,
        0.9122897386550903
      ],
      "min": [
        -0.9971083998680115,
        -0.7083271145820618,
        -1.0
      ],
      "type": "VEC3"
    },
    {
      "bufferView": 1,
      "byteOffset": 8392,
      "componentType": 5126,
      "count": 187,
      "max": [
        0.9884209036827087,
        0.5510212182998657
      ],
      "min": [
        0.02069740928709507,
        0.3145129084587097
      ],
      "type": "VEC2"
    },
    {
      "bufferView": 0,
      "byteOffset": 17880,
      "componentType": 5125,
      "count": 531,
      "type": "SCALAR"
    }
  ],
  "asset": {
    "extras": {
      "author": "T-Art (https://sketchfab.com/person-x)",
      "license": "CC-BY-4.0 (http://creativecommons.org/licenses/by/4.0/)",
      "source": "https://sketchfab.com/3d-models/katana-5bc192b777544d58a185845ed495597f",
      "title": "Katana"
    },
    "generator": "Sketchfab-12.67.0",
    "version": "2.0"
  },
  "bufferViews": [
    {
      "buffer": 0,
      "byteLength": 20004,
      "name": "floatBufferViews",
      "target": 34963
    },
    {
      "buffer": 0,
      "byteLength": 9888,
      "byteOffset": 20004,
      "byteStride": 8,
      "name": "floatBufferViews",
      "target": 34962
    },
    {
      "buffer": 0,
      "byteLength": 29664,
      "byteOffset": 29892,
      "byteStride": 12,
      "name": "floatBufferViews",
      "target": 34962
    },
    {
      "buffer": 0,
      "byteLength": 16784,
      "byteOffset": 59556,
      "byteStride": 16,
      "name": "floatBufferViews",
      "target": 34962
    }
  ],
  "buffers": [
    {
      "byteLength": 76340,
      "uri": "scene.bin"
    }
  ],
  "images": [
    {
      "uri": "textures/Blade_mat_baseColor.png"
    },
    {
      "uri": "textures/Habaki_mat_baseColor.png"
    },
    {
      "uri": "textures/Habaki_mat_normal.png"
    },
    {
      "uri": "textures/Saya_mat_baseColor.png"
    },
    {
      "uri": "textures/Saya_mat_metallicRoughness.png"
    },
    {
      "uri": "textures/Saya_mat_normal.png"
    },
    {
      "uri": "textures/Tsuka_mat_baseColor.png"
    },
    {
      "uri": "textures/Tsuka_mat_metallicRoughness.png"
    },
    {
      "uri": "textures/Tsuka_mat_normal.png"
    },
    {
      "uri": "textures/Tsuba_mat_baseColor.jpeg"
    },
    {
      "uri": "textures/Tsuba_mat_metallicRoughness.png"
    },
    {
      "uri": "textures/Tsuba_mat_normal.png"
    }
  ],
  "materials": [
    {
      "doubleSided": true,
      "name": "Blade_mat",
      "pbrMetallicRoughness": {
        "baseColorTexture": {
          "index": 0
        },
        "metallicFactor": 0.0,
        "roughnessFactor": 0.37633384146341464
      }
    },
    {
      "doubleSided": true,
      "name": "Habaki_mat",
      "normalTexture": {
        "index": 2
      },
      "pbrMetallicRoughness": {
        "baseColorTexture": {
          "index": 1
        },
        "metallicFactor": 0.0,
        "roughnessFactor": 0.3309832317073171
      }
    },
    {
      "doubleSided": true,
      "name": "Saya_mat",
      "normalTexture": {
        "index": 5
      },
      "occlusionTexture": {
        "index": 4
      },
      "pbrMetallicRoughness": {
        "baseColorTexture": {
          "index": 3
        },
        "metallicFactor": 0.0,
        "metallicRoughnessTexture": {
          "index": 4
        },
        "roughnessFactor": 0.36147103658536583
      }
    },
    {
      "doubleSided": true,
      "name": "Tsuka_mat",
      "normalTexture": {
        "index": 8
      },
      "occlusionTexture": {
        "index": 7
      },
      "pbrMetallicRoughness": {
        "baseColorTexture": {
          "index": 6
        },
        "metallicFactor": 0.0,
        "metallicRoughnessTexture": {
          "index": 7
        },
        "roughnessFactor": 0.5409679878048781
      }
    },
    {
      "doubleSided": true,
      "name": "Tsuba_mat",
      "normalTexture": {
        "index": 11
      },
      "occlusionTexture": {
        "index": 10
      },
      "pbrMetallicRoughness": {
        "baseColorTexture": {
          "index": 9
        },
        "metallicRoughnessTexture": {
          "index": 10
        },
        "roughnessFactor": 0.7151295731707317
      }
    }
  ],
  "meshes": [
    {
      "name": "Tsuba_mat-material",
      "primitives": [
        {
          "attributes": {
            "NORMAL": 1,
            "POSITION": 0,
            "TANGENT": 2,
            "TEXCOORD_0": 3
          },
          "indices": 4,
          "material": 4,
          "mode": 4
        }
      ]
    },
    {
      "name": "Tsuka_mat-material",
      "primitives": [
        {
          "attributes": {
            "NORMAL": 6,
            "POSITION": 5,
            "TANGENT": 7,
            "TEXCOORD_0": 8
          },
          "indices": 9,
          "material": 3,
          "mode": 4
        }
      ]
    },
    {
      "name": "Saya_mat-material",
      "primitives": [
        {
          "attributes": {
            "NORMAL": 11,
            "POSITION": 10,
            "TANGENT": 12,
            "TEXCOORD_0": 13
          },
          "indices": 14,
          "material": 2,
          "mode": 4
        }
      ]
    },
    {
      "name": "Habaki_mat-material",
      "primitives": [
        {
          "attributes": {
            "NORMAL": 16,
            "POSITION": 15,
            "TANGENT": 17,
            "TEXCOORD_0": 18
          },
          "indices": 19,
          "material": 1,
          "mode": 4
        }
      ]
    },
    {
      "name": "Blade_mat-material",
      "primitives": [
        {
          "attributes": {
            "NORMAL": 21,
            "POSITION": 20,
            "TEXCOORD_0": 22
          },
          "indices": 23,
          "material": 0,
          "mode": 4
        }
      ]
    }
  ],
  "nodes": [
    {
      "children": [
        1
      ],
      "matrix": [
        1.0,
        0.0,
        0.0,
        0.0,
        0.0,
        2.220446049250313e-16,
        -1.0,
        0.0,
        0.0,
        1.0,
        2.220446049250313e-16,
        0.0,
        0.0,
        0.0,
        0.0,
        1.0
      ],
      "name": "Sketchfab_model"
    },
    {
      "children": [
        2,
        4,
        6,
        8,
        10
      ],
      "name": "Collada visual scene group"
    },
    {
      "children": [
        3
      ],
      "matrix": [
        0.06877926,
        0.0,
        0.0,
        0.0,
        0.0,
        -1.85658e-08,
        0.1139559,
        0.0,
        0.0,
        -0.06877926,
        -1.12056e-08,
        0.0,
        0.0,
        -0.006539941,
        -0.01952159,
        1.0
      ],
      "name": "Tsuba"
    },
    {
      "mesh": 0,
      "name": "Tsuba_mat-material"
    },
    {
      "children": [
        5
      ],
      "matrix": [
        0.06877926,
        0.0,
        0.0,
        0.0,
        0.0,
        -1.85658e-08,
        0.1139559,
        0.0,
        0.0,
        -0.06877926,
        -1.12056e-08,
        0.0,
        0.0,
        -0.006539941,
        -0.01952159,
        1.0
      ],
      "name": "Tsuka"
    },
    {
      "mesh": 1,
      "name": "Tsuka_mat-material"
    },
    {
      "children": [
        7
      ],
      "matrix": [
        0.2093746,
        0.0,
        0.0,
        0.0,
        0.0,
        -2.61813e-08,
        0.1606994,
        0.0,
        0.0,
        -0.1574019,
        -2.5644e-08,
        0.0,
        0.0,
        -0.006539941,
        -0.5955007,
        1.0
      ],
      "name": "Saya"
    },
    {
      "mesh": 2,
      "name": "Saya_mat-material"
    },
    {
      "children": [
        9
      ],
      "matrix": [
        0.06877926,
        0.0,
        0.0,
        0.0,
        0.0,
        -1.85658e-08,
        0.1139559,
        0.0,
        0.0,
        -0.06877926,
        -1.12056e-08,
        0.0,
        0.0,
        -0.006539941,
        -0.01952159,
        1.0
      ],
      "name": "Habaki"
    },
    {
      "mesh": 3,
      "name": "Habaki_mat-material"
    },
    {
      "children": [
        11
      ],
      "matrix": [
        0.06877926,
        0.0,
        0.0,
        0.0,
        0.0,
        -1.85658e-08,
        0.1139559,
        0.0,
        0.0,
        -0.06877926,
        -1.12056e-08,
        0.0,
        0.0,
        -0.006539941,
        -0.01952159,
        1.0
      ],
      "name": "Blade"
    },
    {
      "mesh": 4,
      "name": "Blade_mat-material"
    }
  ],
  "samplers": [
    {
      "magFilter": 9729,
      "minFilter": 9987,
      "wrapS": 10497,
      "wrapT": 10497
    }
  ],
  "scene": 0,
  "scenes": [
    {
      "name": "Sketchfab_Scene",
      "nodes": [
        0
      ]
    }
  ],
  "textures": [
    {
      "sampler": 0,
      "source": 0
    },
    {
      "sampler": 0,
      "source": 1
    },
    {
      "sampler": 0,
      "source": 2
    },
    {
      "sampler": 0,
      "source": 3
    },
    {
      "sampler": 0,
      "source": 4
    },
    {
      "sampler": 0,
      "source": 5
    },
    {
      "sampler": 0,
      "source": 6
    },
    {
      "sampler": 0,
      "source": 7
    },
    {
      "sampler": 0,
      "source": 8
    },
    {
      "sampler": 0,
      "source": 9
    },
    {
      "sampler": 0,
      "source": 10
    },
    {
      "sampler": 0,
      "source": 11
    }
  ]
}
